<svg width="59" height="55" viewBox="0 0 59 55" fill="none" xmlns="http://www.w3.org/2000/svg">
<path d="M57.2402 48.125H54.9762L32.981 12.6491L37.8803 4.74823C38.3564 3.98017 38.2115 2.90488 37.5556 2.34736L35.1798 0.328909C34.5239 -0.228608 33.6066 -0.058882 33.1296 0.710256L29.3539 6.79998L25.5774 0.709182C25.1013 -0.0588821 24.1831 -0.229682 23.5272 0.327835L21.1532 2.34736C20.4973 2.90488 20.3514 3.98017 20.8284 4.74823L25.7278 12.6491L3.73162 48.125H1.4677C0.656794 48.125 0 48.8942 0 49.8438V53.2813C0 54.2309 0.656794 55 1.4677 55H57.2402C58.0511 55 58.7079 54.2309 58.7079 53.2813V49.8438C58.7079 48.8942 58.0511 48.125 57.2402 48.125ZM29.3539 30.9376L40.0278 48.125H18.6801L29.3539 30.9376Z" fill="#DDCB00"/>
</svg>


