<svg width="198" height="120" viewBox="0 0 198 120" fill="none" xmlns="http://www.w3.org/2000/svg">
<g clip-path="url(#clip0_94_395)">
<path d="M172.06 94.0961C172.016 94.0414 171.972 93.9866 171.929 93.9318C171.886 93.8769 171.842 93.8219 171.799 93.7667C171.756 93.7115 171.713 93.6562 171.671 93.6007C171.628 93.5453 171.586 93.4895 171.544 93.4334C171.473 91.8254 171.472 90.2315 171.541 88.6518C171.608 87.0834 171.743 85.5338 171.948 84.003C172.149 82.4838 172.417 80.9879 172.75 79.5156C173.08 78.0545 173.474 76.621 173.931 75.215C173.983 75.053 174.036 74.8915 174.09 74.7307C174.144 74.5699 174.199 74.4101 174.255 74.2514C174.31 74.0919 174.367 73.9332 174.425 73.7752C174.482 73.6171 174.541 73.4597 174.6 73.3028C175.04 72.1288 175.525 70.9836 176.054 69.8671C176.579 68.7584 177.146 67.6803 177.755 66.633C178.36 65.5929 179.004 64.5849 179.689 63.609C180.369 62.6403 181.086 61.7055 181.841 60.8045L181.96 60.6631L182.08 60.5226L182.2 60.3827L182.32 60.2437L182.406 60.1439L182.494 60.0444C182.523 60.0114 182.553 59.9785 182.582 59.9458C182.612 59.913 182.642 59.8806 182.672 59.8485L182.744 59.8101L182.815 59.7721L182.886 59.7341L182.957 59.6962L182.961 59.6948L182.966 59.6927L182.97 59.6907L182.975 59.6891L183.003 59.6738L183.032 59.6583L183.059 59.6429L183.086 59.6275L183.209 59.5627L183.332 59.499L183.455 59.4355L183.577 59.3714L183.484 59.3258L183.25 59.2121L183.252 59.2111C183.272 59.2195 183.292 59.2284 183.312 59.2377C183.332 59.247 183.351 59.256 183.371 59.2647C183.391 59.2738 183.411 59.283 183.431 59.292C183.45 59.3011 183.47 59.3104 183.49 59.32L183.512 59.3294L183.535 59.339L183.558 59.3486C183.566 59.3516 183.574 59.3552 183.581 59.3594C183.587 59.3628 183.594 59.3656 183.601 59.3678L183.621 59.3762L183.641 59.3846L183.661 59.393C184.512 59.7745 185.366 60.1619 186.208 60.568C187.051 60.9742 187.88 61.3975 188.687 61.8531C189.492 62.3052 190.272 62.7984 191.024 63.3305C191.774 63.86 192.483 64.4419 193.147 65.0716C193.848 65.741 194.475 66.4807 195.017 67.2785C195.553 68.0622 195.994 68.9044 196.331 69.7881C196.655 70.6293 196.848 71.5133 196.904 72.4105C196.958 73.2736 196.834 74.1383 196.539 74.9535C196.499 75.0598 196.456 75.1646 196.41 75.268C196.364 75.3713 196.315 75.4731 196.263 75.5733C196.211 75.6734 196.155 75.7719 196.097 75.8685C196.039 75.9652 195.977 76.0601 195.913 76.1532C195.886 76.1921 195.859 76.2306 195.831 76.2687C195.803 76.3068 195.775 76.3446 195.746 76.382C195.718 76.4195 195.689 76.4568 195.659 76.494C195.63 76.5311 195.6 76.568 195.57 76.6045C195.013 77.2899 194.304 77.8434 193.497 78.2236C192.686 78.6027 191.805 78.8165 190.907 78.8519C189.963 78.8905 189.02 78.7567 188.126 78.4572C187.167 78.1372 186.277 77.6485 185.498 77.0153C185.228 76.7977 184.973 76.564 184.734 76.3155C184.496 76.0692 184.275 75.8088 184.07 75.5357C183.868 75.2649 183.683 74.9819 183.516 74.6883C183.352 74.397 183.206 74.0955 183.081 73.7857C183.022 74.7479 183.175 75.7113 183.529 76.6109C183.902 77.5567 184.41 78.4465 185.037 79.254C185.699 80.1137 186.434 80.9177 187.233 81.6575C188.038 82.4123 188.893 83.1197 189.737 83.7713C190.581 84.4228 191.456 85.0892 192.302 85.7842C193.148 86.4675 193.953 87.1975 194.713 87.9706C195.45 88.7175 196.103 89.5405 196.658 90.4252C197.204 91.2985 197.599 92.254 197.826 93.2531C198.07 94.3413 198.057 95.4695 197.79 96.5524C197.66 97.0793 197.475 97.5917 197.238 98.0815C196.999 98.5753 196.712 99.0459 196.382 99.4867L196.351 99.527L196.321 99.5672L196.289 99.6072L196.257 99.647C195.452 100.677 194.44 101.535 193.285 102.17C192.704 102.49 192.091 102.752 191.456 102.952C190.806 103.156 190.136 103.297 189.458 103.372C188.166 103.489 186.865 103.416 185.596 103.156C184.289 102.889 183.019 102.473 181.81 101.917C180.561 101.346 179.367 100.665 178.242 99.884C177.107 99.0987 176.033 98.2331 175.028 97.2941C174.761 97.0452 174.499 96.7917 174.241 96.5336C173.984 96.2755 173.731 96.0131 173.484 95.7465C173.236 95.4797 172.993 95.2088 172.756 94.9339C172.519 94.6589 172.287 94.3797 172.06 94.0961Z" fill="#F2F2F2"/>
<path d="M192.818 75.4646C192.02 75.0596 191.252 74.5991 190.522 74.0868C189.062 73.0638 187.759 71.8436 186.649 70.4627C186.099 69.7775 185.601 69.0539 185.159 68.2978C184.79 67.6591 184.462 66.9983 184.178 66.3193C183.9 65.6568 183.667 64.9775 183.479 64.2855C183.296 63.6096 183.159 62.9225 183.07 62.2287C182.983 61.5491 182.945 60.8643 182.956 60.1795C182.957 60.1408 182.958 60.1025 182.958 60.0644C182.959 60.0262 182.96 59.9879 182.961 59.9493C182.962 59.9106 182.964 59.8725 182.966 59.8349L182.971 59.7211C182.938 59.7469 182.904 59.773 182.871 59.7994L182.771 59.8788L182.672 59.9588L182.573 60.0391L182.509 60.0906L182.445 60.1425L182.382 60.1948L182.319 60.2471L182.406 60.1475L182.495 60.0447C182.524 60.0117 182.553 59.9788 182.583 59.946C182.612 59.9133 182.642 59.8809 182.673 59.8488L182.745 59.8104L182.816 59.7723L182.885 59.7344L182.956 59.6966L182.961 59.6952L182.965 59.6931L182.97 59.691L182.974 59.6894L183.003 59.6741L183.031 59.6588L183.059 59.6433L183.086 59.6279L183.209 59.5632L183.332 59.4995L183.455 59.4359L183.578 59.3722L183.482 59.3256L183.248 59.2117L183.249 59.2107C183.27 59.2191 183.29 59.228 183.309 59.2373C183.329 59.2466 183.349 59.2556 183.369 59.2643C183.389 59.2734 183.409 59.2826 183.428 59.2916C183.448 59.3007 183.467 59.31 183.487 59.3196L183.51 59.329L183.533 59.3386L183.556 59.3482C183.563 59.3512 183.571 59.3548 183.578 59.3589L183.576 59.3952L183.573 59.4292L183.571 59.463L183.569 59.4973C183.483 60.6509 183.545 61.8105 183.752 62.9491C183.966 64.1212 184.316 65.2655 184.797 66.3593C185.294 67.4915 185.914 68.5677 186.649 69.5689C187.407 70.6045 188.276 71.5583 189.241 72.414C190.212 73.2634 191.272 74.0112 192.402 74.6449C192.96 74.9578 193.535 75.2415 194.124 75.4948C194.708 75.7455 195.306 75.9651 195.914 76.1525C195.887 76.1914 195.86 76.2299 195.832 76.268C195.804 76.306 195.776 76.3438 195.747 76.3813C195.719 76.4188 195.69 76.4561 195.66 76.4933C195.631 76.5304 195.601 76.5673 195.571 76.6038C195.336 76.5278 195.103 76.4469 194.871 76.3613C194.639 76.2756 194.408 76.1852 194.178 76.0901C193.948 75.995 193.72 75.8952 193.493 75.7907C193.267 75.6863 193.041 75.5776 192.818 75.4646Z" fill="white"/>
<path d="M177.023 84.0859C176.762 83.7044 176.515 83.3159 176.283 82.9203C176.051 82.5247 175.834 82.1235 175.633 81.7167C175.431 81.31 175.245 80.8981 175.074 80.4811C174.904 80.0641 174.749 79.6434 174.611 79.2191C174.54 78.9941 174.474 78.7683 174.415 78.5416C174.355 78.315 174.301 78.088 174.252 77.8606C174.204 77.6333 174.161 77.4054 174.123 77.177C174.085 76.9487 174.053 76.7205 174.028 76.4925C174.014 76.3862 174.003 76.2798 173.992 76.1731C173.982 76.0664 173.972 75.9599 173.964 75.8534C173.956 75.7468 173.949 75.6403 173.944 75.5339C173.938 75.4276 173.933 75.3213 173.93 75.2153C173.982 75.0532 174.035 74.8918 174.089 74.731C174.143 74.5701 174.198 74.41 174.253 74.2506C174.309 74.0911 174.366 73.9323 174.424 73.7743C174.481 73.6163 174.54 73.4588 174.599 73.3019C174.586 73.4333 174.575 73.5651 174.566 73.6972C174.557 73.8293 174.55 73.9617 174.544 74.0946C174.539 74.2275 174.535 74.3607 174.534 74.4943C174.532 74.6278 174.532 74.7616 174.534 74.8957C174.534 74.9687 174.535 75.0418 174.536 75.1148C174.538 75.1878 174.54 75.2609 174.542 75.334C174.545 75.407 174.548 75.4801 174.552 75.5532C174.556 75.6262 174.56 75.6993 174.565 75.7724C174.623 76.5922 174.754 77.4054 174.958 78.2025C175.165 79.0092 175.435 79.7993 175.765 80.5658C176.101 81.347 176.489 82.1061 176.926 82.8381C177.37 83.5829 177.856 84.3033 178.382 84.9959C178.947 85.7437 179.545 86.4718 180.175 87.1801C180.805 87.8885 181.458 88.5774 182.136 89.247C182.814 89.916 183.513 90.5642 184.231 91.1918C184.949 91.8194 185.679 92.4252 186.421 93.0094C187.181 93.6092 187.956 94.1862 188.747 94.7404C189.538 95.2946 190.341 95.8245 191.158 96.3301C191.974 96.8356 192.802 97.3165 193.643 97.7727C194.483 98.2289 195.334 98.659 196.193 99.0631C196.233 99.0819 196.268 99.1077 196.298 99.1391C196.328 99.1698 196.352 99.2052 196.369 99.2438C196.386 99.2819 196.396 99.3226 196.398 99.3641C196.401 99.4058 196.395 99.4477 196.382 99.4873C196.377 99.5045 196.371 99.5211 196.363 99.5371C196.356 99.5526 196.347 99.5673 196.336 99.5809C196.325 99.5945 196.313 99.6069 196.3 99.6181C196.287 99.6291 196.273 99.6386 196.257 99.6466C196.241 99.6538 196.224 99.659 196.207 99.6621C196.189 99.6651 196.172 99.666 196.154 99.6648C196.136 99.6636 196.118 99.6603 196.101 99.6551C196.083 99.6498 196.065 99.6426 196.049 99.6336C195.943 99.5837 195.837 99.5337 195.731 99.4835C195.624 99.4332 195.518 99.3827 195.413 99.3319C195.307 99.281 195.201 99.2297 195.096 99.1778C194.991 99.126 194.885 99.0735 194.78 99.0202C193.904 98.58 193.039 98.1134 192.186 97.6205C191.334 97.1276 190.494 96.6089 189.666 96.0646C188.839 95.5203 188.027 94.9516 187.23 94.3585C186.433 93.7653 185.653 93.1486 184.89 92.5083C184.152 91.8919 183.424 91.2546 182.714 90.5956C182.003 89.9367 181.31 89.2566 180.644 88.5548C179.977 87.853 179.336 87.1299 178.73 86.3849C178.123 85.6399 177.552 84.874 177.023 84.0859Z" fill="white"/>
<path d="M193.529 22.8514L192.902 22.9312L197.11 7.48459C197.42 6.45316 197.471 5.3637 197.257 4.30907C197.072 3.44734 196.614 2.66452 195.948 2.07169C195.251 1.47893 194.396 1.09108 193.483 0.952892C192.371 0.78447 191.236 0.834179 190.144 1.09913L161.544 7.46898C160.545 7.70584 159.59 8.09025 158.71 8.60894C157.753 9.16534 156.864 9.82512 156.057 10.5759C155.228 11.3414 154.484 12.1904 153.837 13.1087C153.204 13.9976 152.689 14.9607 152.303 15.9753L122.378 96.4694C121.881 97.793 121.558 99.1731 121.416 100.576C121.285 101.822 121.347 103.08 121.6 104.308C121.811 105.375 122.251 106.386 122.891 107.274C123.479 108.081 124.306 108.692 125.262 109.022L155.48 119.196C156.822 119.643 158.263 119.727 159.65 119.439C161.133 119.123 162.528 118.495 163.737 117.598C165.095 116.6 166.263 115.376 167.187 113.982C168.211 112.451 168.975 110.768 169.452 108.999L189.711 34.6386L190.347 34.5888L193.529 22.8514Z" fill="#2F2E41"/>
<path d="M191.343 21.9962L190.716 22.076L194.924 6.62939C195.234 5.59796 195.284 4.5085 195.071 3.45387C194.886 2.59215 194.428 1.80933 193.762 1.21649C193.065 0.623738 192.21 0.235889 191.297 0.0976984C190.185 -0.0707245 189.05 -0.0210154 187.958 0.243933L159.357 6.61378C158.359 6.85065 157.404 7.23505 156.524 7.75375C155.567 8.31015 154.678 8.96993 153.871 9.72067C153.042 10.4862 152.298 11.3352 151.651 12.2535C151.018 13.1424 150.503 14.1055 150.117 15.1201L120.192 95.6142C119.695 96.9378 119.372 98.3179 119.23 99.7213C119.099 100.967 119.161 102.225 119.414 103.453C119.625 104.52 120.065 105.531 120.705 106.419C121.293 107.226 122.12 107.836 123.076 108.167L153.294 118.341C154.636 118.788 156.077 118.872 157.464 118.584C158.947 118.268 160.342 117.64 161.551 116.743C162.909 115.745 164.077 114.521 165.001 113.127C166.025 111.596 166.789 109.913 167.266 108.144L187.525 33.7835L188.161 33.7336L191.343 21.9962Z" fill="#3F3D56"/>
<path d="M187.705 2.25941L183.501 3.16013C183.547 3.51586 183.51 3.87713 183.395 4.21736C183.264 4.61531 183.074 4.99232 182.831 5.33636C182.284 6.11742 181.555 6.75945 180.703 7.20901C180.601 7.26203 180.499 7.31099 180.398 7.35589C180.297 7.40078 180.195 7.44155 180.094 7.47818C179.993 7.51481 179.893 7.54716 179.793 7.57524C179.694 7.60332 179.596 7.62698 179.498 7.64622L163.061 10.9013C162.756 10.9706 162.438 10.9671 162.135 10.891C161.891 10.8269 161.676 10.685 161.523 10.4878C161.369 10.276 161.283 10.0247 161.273 9.76516C161.261 9.43403 161.314 9.10368 161.431 8.7926C161.46 8.70865 161.493 8.62412 161.531 8.53903C161.568 8.45394 161.609 8.36885 161.653 8.28376C161.696 8.19824 161.744 8.11315 161.796 8.02849C161.848 7.94382 161.902 7.85923 161.96 7.77471L158.847 8.44154C158.098 8.61346 157.38 8.8976 156.719 9.2839C155.997 9.69994 155.325 10.1948 154.717 10.7591C154.091 11.3356 153.528 11.9757 153.041 12.6687C152.565 13.3384 152.178 14.0645 151.89 14.8296L122.021 96.0232C121.65 97.0209 121.411 98.0613 121.312 99.1186C121.219 100.052 121.274 100.993 121.473 101.911C121.638 102.704 121.977 103.452 122.465 104.106C122.912 104.698 123.535 105.142 124.25 105.374L154.69 115.046C155.695 115.361 156.767 115.408 157.796 115.182C158.892 114.937 159.921 114.465 160.815 113.797C161.814 113.057 162.675 112.153 163.358 111.125C164.114 109.995 164.681 108.756 165.038 107.452L192.851 7.07859C193.085 6.31239 193.128 5.50281 192.977 4.717C192.847 4.07303 192.514 3.48503 192.025 3.03506C191.513 2.58519 190.88 2.28703 190.201 2.17538C189.372 2.03917 188.523 2.06775 187.705 2.25941Z" fill="white"/>
<path d="M171.38 40.7137H110.826V20.6456H171.38V40.7137Z" fill="white"/>
<path d="M153.677 47.7966H94.3293V75.9314H153.677V47.7966Z" fill="white"/>
<path d="M103.971 61.3069C106.342 61.3069 108.264 59.4273 108.264 57.1086C108.264 54.79 106.342 52.9104 103.971 52.9104C101.6 52.9104 99.678 54.79 99.678 57.1086C99.678 59.4273 101.6 61.3069 103.971 61.3069Z" fill="white"/>
<path d="M113.885 54.3098C113.695 54.3098 113.513 54.3835 113.379 54.5147C113.245 54.646 113.17 54.8239 113.17 55.0095C113.17 55.1951 113.245 55.3731 113.379 55.5043C113.513 55.6355 113.695 55.7092 113.885 55.7092H147.614C147.804 55.7088 147.985 55.6348 148.119 55.5037C148.253 55.3725 148.328 55.1948 148.328 55.0095C148.328 54.8242 148.253 54.6465 148.119 54.5153C147.985 54.3842 147.804 54.3103 147.614 54.3098H113.885Z" fill="#E6E6E6"/>
<path d="M113.885 58.5081C113.791 58.5077 113.698 58.5256 113.611 58.5605C113.524 58.5954 113.445 58.6468 113.378 58.7116C113.311 58.7765 113.258 58.8535 113.222 58.9384C113.186 59.0233 113.167 59.1143 113.167 59.2063C113.167 59.2983 113.185 59.3893 113.221 59.4744C113.257 59.5594 113.309 59.6367 113.376 59.7018C113.442 59.7669 113.521 59.8186 113.608 59.8539C113.695 59.8892 113.788 59.9074 113.882 59.9075H128.399C128.493 59.9075 128.586 59.8894 128.672 59.8542C128.759 59.8191 128.838 59.7675 128.905 59.7025C128.971 59.6376 129.024 59.5604 129.06 59.4755C129.096 59.3906 129.114 59.2997 129.114 59.2078C129.114 59.1159 129.096 59.0249 129.06 58.94C129.024 58.8551 128.971 58.778 128.905 58.713C128.838 58.648 128.759 58.5965 128.672 58.5613C128.586 58.5262 128.493 58.5081 128.399 58.5081H113.885Z" fill="#E6E6E6"/>
<path d="M100.678 65.2199C100.134 65.2199 99.6909 65.5338 99.6909 65.9196C99.6909 66.3054 100.134 66.6193 100.678 66.6193H147.214C147.758 66.6193 148.201 66.3054 148.201 65.9196C148.201 65.5338 147.758 65.2199 147.214 65.2199H100.678Z" fill="#E6E6E6"/>
<path d="M100.678 69.4181C100.134 69.4181 99.6909 69.7321 99.6909 70.1178C99.6909 70.5036 100.134 70.8175 100.678 70.8175H136.502C137.046 70.8175 137.489 70.5036 137.489 70.1178C137.489 69.7321 137.046 69.4181 136.502 69.4181H100.678Z" fill="#E6E6E6"/>
<path d="M154.28 76.5216H93.7258V47.2063H154.28V76.5216ZM94.9329 75.3411H153.073V48.3868H94.9329V75.3411Z" fill="#E6E6E6"/>
<path d="M121.071 34.7461C123.441 34.7461 125.363 32.8665 125.363 30.5479C125.363 28.2292 123.441 26.3496 121.071 26.3496C118.7 26.3496 116.778 28.2292 116.778 30.5479C116.778 32.8665 118.7 34.7461 121.071 34.7461Z" fill="white"/>
<path d="M130.985 27.749C130.795 27.749 130.613 27.8227 130.479 27.954C130.345 28.0852 130.27 28.2632 130.27 28.4487C130.27 28.6343 130.345 28.8123 130.479 28.9435C130.613 29.0747 130.795 29.1484 130.985 29.1484H164.714C164.904 29.148 165.085 29.0741 165.219 28.9429C165.353 28.8117 165.428 28.634 165.428 28.4487C165.428 28.2635 165.353 28.0858 165.219 27.9546C165.085 27.8234 164.904 27.7495 164.714 27.749H130.985Z" fill="#E6E6E6"/>
<path d="M130.985 31.9472C130.891 31.9469 130.798 31.9647 130.711 31.9997C130.624 32.0346 130.545 32.086 130.478 32.1508C130.411 32.2157 130.358 32.2927 130.322 32.3776C130.286 32.4625 130.267 32.5535 130.267 32.6455C130.267 32.7374 130.285 32.8285 130.321 32.9136C130.357 32.9986 130.41 33.0759 130.476 33.141C130.542 33.2061 130.621 33.2578 130.708 33.2931C130.795 33.3284 130.888 33.3466 130.982 33.3467H157.522C157.712 33.3467 157.894 33.2729 158.028 33.1417C158.162 33.0105 158.238 32.8325 158.238 32.6469C158.238 32.4614 158.162 32.2834 158.028 32.1522C157.894 32.021 157.712 31.9472 157.522 31.9472H130.985Z" fill="#E6E6E6"/>
<path d="M171.38 40.7137H110.826V20.6456H171.38V40.7137ZM112.033 39.5332H170.173V21.826H112.033V39.5332Z" fill="#E6E6E6"/>
<path d="M52.3976 117.158H55.4501L56.9023 105.643L52.397 105.643L52.3976 117.158Z" fill="#FFB6B6"/>
<path d="M61.3374 119.93L51.7438 119.93L51.7436 116.305L58.0828 116.305C58.9459 116.305 59.7737 116.64 60.3841 117.237C60.9944 117.834 61.3373 118.643 61.3374 119.487L61.3374 119.93Z" fill="#2F2E41"/>
<path d="M21.8743 113.289L24.5492 114.727L31.4945 105.321L27.5466 103.199L21.8743 113.289Z" fill="#FFB6B6"/>
<path d="M28.3423 119.93L19.9354 115.41L21.7212 112.233L27.2762 115.22C28.0325 115.627 28.5927 116.311 28.8335 117.121C29.0743 117.932 28.976 118.803 28.5601 119.542L28.3423 119.93Z" fill="#2F2E41"/>
<path d="M52.2551 110.767C51.9831 110.766 51.7205 110.669 51.5162 110.494C51.312 110.318 51.18 110.076 51.1451 109.812L47.3275 81.0424C47.3107 80.9152 47.2531 80.7964 47.1631 80.703C47.073 80.6097 46.9552 80.5466 46.8263 80.5226C46.6974 80.4987 46.564 80.5152 46.4453 80.5699C46.3266 80.6245 46.2285 80.7144 46.1652 80.8267L30.2553 109.056C30.124 109.287 29.9125 109.463 29.6592 109.554C29.406 109.645 29.1278 109.644 28.8752 109.552L25.4073 108.259C25.2679 108.207 25.1404 108.129 25.0324 108.028C24.9245 107.927 24.8382 107.806 24.7787 107.672C24.7192 107.538 24.6876 107.394 24.6859 107.248C24.6841 107.102 24.7122 106.958 24.7685 106.822L35.7896 80.3445C35.8175 80.2772 35.8364 80.2067 35.8459 80.1348C37.3387 68.8354 41.1367 63.0893 42.2652 61.5974C42.3476 61.4877 42.4019 61.3603 42.4234 61.2258C42.4448 61.0914 42.4329 60.9538 42.3887 60.8248L42.2335 60.3697C42.1716 60.189 42.1589 59.9957 42.1967 59.8088C42.2345 59.6219 42.3215 59.4478 42.4491 59.3039C46.5154 54.7743 53.6027 57.246 53.6739 57.2714L53.7094 57.2843L53.7316 57.314C61.6786 67.9727 58.7403 102.592 58.0706 109.424C58.0456 109.68 57.9286 109.92 57.7402 110.101C57.5519 110.281 57.3043 110.391 57.0413 110.41L52.3421 110.764C52.3129 110.766 52.2839 110.767 52.2551 110.767Z" fill="#2F2E41"/>
<path d="M50.1004 30.8269C53.8523 30.8269 56.8937 27.8524 56.8937 24.1832C56.8937 20.514 53.8523 17.5395 50.1004 17.5395C46.3486 17.5395 43.3071 20.514 43.3071 24.1832C43.3071 27.8524 46.3486 30.8269 50.1004 30.8269Z" fill="#FFB8B8"/>
<path d="M39.5979 66.4584L59.5876 68.2377C57.8448 62.3112 56.2481 56.4055 57.5496 50.5212C59.2024 45.2679 59.356 42.3577 54.9961 39.8836L52.0523 33.4614L46.7246 33.2719L44.1268 32.5755C42.028 35.8758 41.1694 39.7876 41.6986 43.6395C42.8279 52.0157 42.5229 59.7883 39.5979 66.4584Z" fill="white"/>
<path d="M42.6319 36.8117L40.6212 27.7864C40.2017 25.6499 40.307 23.4466 40.9284 21.3577C40.996 21.1437 41.0776 20.9341 41.1725 20.7301C41.7291 19.5439 42.6042 18.5274 43.7046 17.789C44.8051 17.0505 46.0897 16.6177 47.4216 16.5367C51.9913 16.228 52.6621 16.6991 52.8274 16.9315C55.4095 16.8295 57.4118 17.8052 58.3254 19.6106C58.4148 19.7898 58.4631 19.9861 58.4666 20.1855C58.4702 20.3849 58.429 20.5826 58.3459 20.7647C58.2629 20.9469 58.14 21.109 57.986 21.2397C57.8319 21.3704 57.6505 21.4664 57.4544 21.5211C56.1782 21.881 54.3845 22.2807 53.0392 22.1631C50.3427 25.3262 51.4451 31.1216 54.1808 34.5746L54.2883 34.7103L51.5778 35.2536L48.428 30.9637C48.3657 30.8789 48.2754 30.8175 48.1724 30.7899C48.0693 30.7622 47.9597 30.77 47.8618 30.812C47.7639 30.8539 47.6837 30.9274 47.6346 31.0203C47.5855 31.1131 47.5705 31.2196 47.5921 31.3219L48.5484 35.8653L42.6319 36.8117Z" fill="#2F2E41"/>
<path d="M189.553 120H0V119.534H189.64L189.553 120Z" fill="#CACACA"/>
<path d="M81.4613 61.1144L32.0202 95.3071L20.1724 78.922L69.6135 44.7292L81.4613 61.1144Z" fill="white"/>
<path d="M36.8618 84.6499C38.7975 83.3111 39.2571 80.6912 37.8882 78.7981C36.5193 76.905 33.8404 76.4555 31.9046 77.7943C29.9689 79.133 29.5093 81.7529 30.8782 83.646C32.2471 85.5392 34.926 85.9886 36.8618 84.6499Z" fill="white"/>
<path d="M40.8256 73.3387C40.6706 73.4458 40.5656 73.6088 40.5335 73.7917C40.5014 73.9746 40.5449 74.1624 40.6545 74.314C40.7641 74.4655 40.9307 74.5682 41.1177 74.5996C41.3047 74.631 41.4968 74.5884 41.6518 74.4813L69.1909 55.4356C69.3453 55.3283 69.4498 55.1654 69.4816 54.9828C69.5134 54.8002 69.4698 54.6126 69.3605 54.4614C69.2511 54.3101 69.0848 54.2074 68.8982 54.1759C68.7115 54.1443 68.5196 54.1865 68.3647 54.293L40.8256 73.3387Z" fill="#E6E6E6"/>
<path d="M43.304 76.7664C43.149 76.8733 43.0438 77.036 43.0115 77.2187C42.9791 77.4015 43.0223 77.5893 43.1314 77.7409C43.2406 77.8926 43.4068 77.9956 43.5936 78.0274C43.7804 78.0593 43.9725 78.0173 44.1277 77.9107L44.1302 77.909L65.7973 62.9243C65.9522 62.8172 66.0573 62.6542 66.0894 62.4713C66.1215 62.2884 66.0779 62.1006 65.9684 61.949C65.9141 61.874 65.8453 61.8102 65.7658 61.7612C65.6863 61.7122 65.5978 61.6789 65.5052 61.6634C65.3181 61.632 65.126 61.6746 64.9711 61.7817L43.304 76.7664Z" fill="#E6E6E6"/>
<path d="M81.4613 61.1144L32.0202 95.3071L20.1724 78.922L69.6135 44.7292L81.4613 61.1144ZM32.3088 93.6617L79.7789 60.8322L69.3249 46.3746L21.8548 79.2042L32.3088 93.6617Z" fill="#E6E6E6"/>
<path d="M194.355 55.0437C194.53 55.0371 194.705 55.0662 194.868 55.1292C195.023 55.1899 195.164 55.2812 195.281 55.3975C195.399 55.5145 195.49 55.6539 195.551 55.8069C195.614 55.9692 195.643 56.1425 195.636 56.3162C195.629 56.4944 195.587 56.6695 195.511 56.8319C195.438 56.9911 195.335 57.136 195.209 57.2595C195.083 57.3823 194.936 57.4817 194.774 57.5528C194.609 57.625 194.432 57.6647 194.251 57.6695C194.076 57.6747 193.901 57.644 193.738 57.5795C193.584 57.5179 193.445 57.4258 193.329 57.3091C193.212 57.1917 193.121 57.0523 193.062 56.8994C192.999 56.7377 192.971 56.5653 192.979 56.3925C192.986 56.2152 193.028 56.041 193.103 55.8794C193.176 55.7217 193.278 55.5782 193.403 55.4557C193.528 55.3331 193.674 55.2336 193.835 55.1621C193.999 55.0896 194.176 55.0494 194.355 55.0437Z" fill="#F2F2F2"/>
<path d="M55.3535 71.7115L52.1384 54.5227L52.3648 43.8928L45.1187 43.6713L46.4773 55.63L51.1626 72.2128C50.7737 72.6751 50.5354 73.2407 50.4784 73.8367C50.4215 74.4327 50.5485 75.0318 50.843 75.5565C51.1376 76.0813 51.5861 76.5076 52.1309 76.7806C52.6756 77.0536 53.2915 77.1607 53.8991 77.088C54.5067 77.0153 55.078 76.7662 55.5394 76.3729C56.0008 75.9796 56.3311 75.46 56.4877 74.8813C56.6442 74.3026 56.6198 73.6913 56.4177 73.1263C56.2155 72.5613 55.8448 72.0685 55.3535 71.7115H55.3535Z" fill="#FFB8B8"/>
<path d="M44.6658 44.7786C47.2911 43.8007 50.1924 43.8007 52.8177 44.7786L52.3649 35.9203C52.3649 35.455 52.2711 34.9943 52.0891 34.5644C51.907 34.1345 51.6401 33.7439 51.3037 33.4149C50.9672 33.0858 50.5678 32.8248 50.1283 32.6468C49.6887 32.4687 49.2176 32.377 48.7418 32.377C48.266 32.377 47.7948 32.4687 47.3553 32.6468C46.9157 32.8248 46.5163 33.0858 46.1798 33.4149C45.8434 33.7439 45.5765 34.1345 45.3945 34.5644C45.2124 34.9943 45.1187 35.455 45.1187 35.9203L44.6658 44.7786Z" fill="white"/>
</g>
<defs>
<clipPath id="clip0_94_395">
<rect width="198" height="120" fill="white"/>
</clipPath>
</defs>
</svg>
