<svg width="169" height="141" viewBox="0 0 169 141" fill="none" xmlns="http://www.w3.org/2000/svg">
<g clip-path="url(#clip0_101_816)">
<path d="M149.731 130.414L152.704 133.151L150.341 129.186C152.203 125.81 155.248 122.892 155.248 122.892C155.248 122.892 161.565 128.944 161.565 133.701C161.565 138.459 158.736 140.12 155.248 140.12C151.759 140.12 148.931 138.459 148.931 133.701C148.97 132.562 149.243 131.443 149.731 130.414Z" fill="#F2F2F2"/>
<path d="M153.469 133.299V133.533C153.483 136.259 153.943 138.386 154.845 139.883C154.857 139.905 154.871 139.926 154.884 139.948L154.985 139.887L155.081 139.826C154.081 138.209 153.727 135.924 153.714 133.546C153.713 133.47 153.712 133.392 153.713 133.314C153.716 132.308 153.778 131.29 153.876 130.301C153.883 130.224 153.892 130.146 153.9 130.068C154.037 128.764 154.234 127.517 154.436 126.434C154.45 126.357 154.465 126.281 154.48 126.205C154.829 124.373 155.186 123.046 155.267 122.753C155.276 122.717 155.282 122.697 155.283 122.692L155.173 122.661L155.172 122.66L155.06 122.629C155.059 122.633 155.04 122.699 155.007 122.822C154.883 123.282 154.56 124.53 154.243 126.176C154.229 126.25 154.214 126.327 154.2 126.404C154.035 127.282 153.874 128.264 153.746 129.295C153.714 129.554 153.685 129.81 153.659 130.061C153.65 130.139 153.642 130.217 153.635 130.294C153.528 131.363 153.473 132.365 153.469 133.299Z" fill="white"/>
<path d="M152.495 125.655C152.448 125.716 152.399 125.779 152.349 125.843C152.934 126.122 153.558 126.312 154.2 126.404C154.278 126.415 154.357 126.426 154.436 126.434C154.668 126.458 154.901 126.471 155.135 126.471C156.119 126.472 157.091 126.248 157.975 125.816C157.926 125.754 157.877 125.692 157.828 125.63C156.987 126.032 156.067 126.24 155.135 126.239C154.916 126.239 154.698 126.227 154.48 126.205C154.4 126.197 154.321 126.187 154.243 126.176C153.638 126.089 153.049 125.914 152.495 125.655Z" fill="white"/>
<path d="M150.306 128.881C150.267 128.949 150.23 129.018 150.193 129.086C151.201 129.811 152.396 130.23 153.635 130.294C153.715 130.297 153.795 130.299 153.876 130.3C153.909 130.302 153.941 130.302 153.974 130.302C155.006 130.302 156.023 130.056 156.941 129.584C157.859 129.113 158.651 128.43 159.252 127.591C159.207 127.521 159.161 127.453 159.114 127.384C158.537 128.213 157.769 128.89 156.874 129.358C155.979 129.825 154.984 130.069 153.974 130.069C153.95 130.069 153.924 130.069 153.9 130.068C153.82 130.068 153.739 130.066 153.659 130.061C152.45 130.003 151.285 129.592 150.306 128.881Z" fill="white"/>
<path d="M149.266 131.186C149.238 131.272 149.21 131.357 149.186 131.443C150.297 132.658 151.828 133.405 153.469 133.533C153.55 133.539 153.632 133.544 153.714 133.546C153.8 133.551 153.887 133.552 153.974 133.552C155.342 133.551 156.675 133.118 157.784 132.316C158.892 131.513 159.72 130.382 160.149 129.083C160.099 128.989 160.046 128.896 159.994 128.802C159.614 130.104 158.821 131.248 157.736 132.063C156.651 132.877 155.331 133.318 153.974 133.32C153.887 133.32 153.8 133.318 153.713 133.314C153.632 133.311 153.55 133.306 153.469 133.299C151.846 133.168 150.339 132.41 149.266 131.186Z" fill="white"/>
<path d="M23.6735 49.8096L19.7132 50.6153L23.7858 48.4432C23.9377 44.591 22.8401 40.5194 22.8401 40.5194C22.8401 40.5194 14.3041 42.4337 11.8445 46.5057C9.38493 50.5777 10.9469 53.4617 13.933 55.2654C16.9191 57.0691 20.1987 57.1095 22.6583 53.0375C23.2136 52.0422 23.5591 50.9436 23.6735 49.8096Z" fill="#F2F2F2"/>
<path d="M18.9821 50.3468L18.8608 50.5476C17.4397 52.8734 15.9466 54.4561 14.4003 55.2716C14.378 55.2838 14.3553 55.2945 14.3329 55.3068L14.2783 55.2019L14.2271 55.1004C15.9196 54.2337 17.4045 52.4602 18.6446 50.4319C18.6852 50.3669 18.7264 50.3009 18.7656 50.2337C19.283 49.3704 19.7567 48.4672 20.1836 47.5696C20.2172 47.5004 20.2505 47.4297 20.2837 47.3589C20.8411 46.1712 21.3168 45.002 21.7039 43.9705C21.7316 43.8977 21.7583 43.8243 21.7844 43.7519C22.4324 42.0033 22.8133 40.6833 22.8956 40.3899C22.9063 40.3543 22.9115 40.3344 22.9129 40.3299L23.0235 40.3601L23.0251 40.3597L23.1367 40.3905C23.1353 40.395 23.118 40.4619 23.0822 40.584C22.9508 41.0417 22.5819 42.2767 22.0021 43.8496C21.9756 43.9204 21.9489 43.9937 21.9212 44.0665C21.6079 44.9039 21.2383 45.828 20.8146 46.7764C20.7086 47.0148 20.6014 47.2484 20.493 47.4772C20.4608 47.5486 20.4275 47.6193 20.3939 47.6885C19.9325 48.6589 19.4619 49.545 18.9821 50.3468Z" fill="white"/>
<path d="M22.0021 43.8495C21.9302 43.8182 21.8572 43.7864 21.7844 43.7519C21.5867 43.6586 21.3938 43.5552 21.2066 43.4422C20.4083 42.9614 19.728 42.3077 19.2159 41.5291C19.1423 41.5566 19.0688 41.584 18.9937 41.6119C19.5276 42.4388 20.2435 43.1329 21.0866 43.6409C21.2864 43.7616 21.4925 43.8716 21.704 43.9705C21.7757 44.0043 21.8487 44.0362 21.9213 44.0664C22.5184 44.3196 23.1506 44.4805 23.796 44.5438C23.7863 44.4634 23.777 44.3845 23.7681 44.3072C23.1601 44.2424 22.565 44.0882 22.0021 43.8495Z" fill="white"/>
<path d="M20.4931 47.4771C20.4221 47.4397 20.3523 47.4003 20.2838 47.3588C20.2623 47.3472 20.2405 47.334 20.2196 47.3214C19.3552 46.7994 18.63 46.076 18.1056 45.2131C17.5812 44.3501 17.2732 43.3732 17.208 42.3655C17.1328 42.4001 17.0577 42.4347 16.9829 42.4709C17.064 43.4996 17.389 44.4942 17.9309 45.3722C18.4729 46.2503 19.2163 46.9866 20.0995 47.5201C20.1274 47.5369 20.1552 47.5538 20.1836 47.5696C20.2538 47.6106 20.3235 47.65 20.3939 47.6884C21.4876 48.2749 22.7272 48.534 23.9642 48.4346C23.9679 48.3568 23.9715 48.279 23.9741 48.2005C22.7681 48.3033 21.5583 48.0518 20.4931 47.4771Z" fill="white"/>
<path d="M18.982 50.3468C18.9089 50.3107 18.8369 50.2727 18.7655 50.2337C18.6892 50.1916 18.6135 50.1486 18.539 50.1036C17.3783 49.4007 16.4766 48.3408 15.9688 47.0825C15.4609 45.8243 15.3743 44.4354 15.7219 43.1238C15.6286 43.1772 15.5358 43.2297 15.4445 43.2844C15.1398 44.6184 15.2631 46.0144 15.7971 47.2743C16.3311 48.5341 17.2485 49.5936 18.4189 50.3023C18.4935 50.3473 18.5686 50.3914 18.6445 50.4318C18.7163 50.4724 18.7882 50.5105 18.8608 50.5475C20.3321 51.2862 22.0291 51.4382 23.6083 50.9726C23.6318 50.8865 23.6518 50.7996 23.6724 50.7116C22.1209 51.2046 20.4385 51.0737 18.982 50.3468Z" fill="white"/>
<path d="M90.4333 8.24282L90.1108 12.793L91.946 7.91732C96.2351 7.18373 100.953 7.8166 100.953 7.8166C100.953 7.8166 100.059 17.6499 95.8613 20.9983C91.6638 24.3467 88.2076 23.0205 85.752 19.9423C83.2965 16.8642 82.7716 13.1997 86.9691 9.85123C87.9034 9.10594 89.1148 8.59206 90.4333 8.24282Z" fill="#F2F2F2"/>
<path d="M90.5182 13.5719L90.3113 13.737C87.9161 15.6678 86.3632 17.5702 85.6768 19.4201C85.6663 19.4469 85.6577 19.4739 85.6472 19.5007L85.7726 19.5465L85.8937 19.589C86.6162 17.5679 88.3837 15.6467 90.4725 13.9621C90.5392 13.9071 90.607 13.8514 90.6765 13.7976C91.567 13.0923 92.5086 12.43 93.4507 11.8209C93.5232 11.7732 93.5976 11.7256 93.6719 11.678C94.9196 10.8805 96.1586 10.1771 97.2564 9.59296C97.3338 9.55132 97.412 9.51071 97.4892 9.47092C99.3514 8.48988 100.773 7.87042 101.089 7.7354C101.128 7.71826 101.149 7.70949 101.154 7.70724L101.104 7.58787L101.104 7.58603L101.054 7.46564C101.049 7.46788 100.976 7.49705 100.845 7.55498C100.352 7.76894 99.0236 8.36255 97.3481 9.24153C97.2728 9.28154 97.1945 9.32215 97.1171 9.36378C96.2258 9.83686 95.2456 10.3857 94.2462 10.9986C93.9949 11.1522 93.7492 11.3063 93.5089 11.4611C93.4338 11.5076 93.3594 11.5552 93.2869 11.603C92.2684 12.2613 91.3455 12.9176 90.5182 13.5719Z" fill="white"/>
<path d="M96.5775 7.33214C96.4897 7.33345 96.4001 7.33456 96.3086 7.33545C96.4739 8.0486 96.7465 8.73252 97.1171 9.36381C97.1616 9.4406 97.2079 9.51761 97.2563 9.59298C97.3979 9.81516 97.5512 10.0297 97.7154 10.2357C98.4074 11.105 99.2889 11.8047 100.293 12.2813C100.313 12.1931 100.333 12.1068 100.353 12.0205C99.4063 11.5612 98.5751 10.8955 97.9203 10.0723C97.7664 9.87935 97.6225 9.67862 97.4892 9.47093C97.44 9.39454 97.3936 9.31753 97.3481 9.24155C96.9986 8.6465 96.7389 8.00309 96.5775 7.33214Z" fill="white"/>
<path d="M92.19 7.67099C92.1026 7.68539 92.016 7.70083 91.9294 7.71625C91.9992 9.11531 92.4705 10.4647 93.2868 11.603C93.3401 11.6761 93.3945 11.7484 93.4506 11.8209C93.4725 11.8504 93.4954 11.8791 93.5182 11.9078C94.2446 12.8182 95.1774 13.5425 96.2394 14.0206C97.3014 14.4988 98.462 14.717 99.6251 14.6573C99.6547 14.5683 99.6825 14.4791 99.7102 14.3899C98.5729 14.4643 97.4345 14.2626 96.392 13.8019C95.3495 13.3413 94.4338 12.6354 93.7231 11.7444C93.7059 11.7229 93.688 11.7003 93.6718 11.678C93.6154 11.6073 93.5611 11.535 93.5088 11.4611C92.7098 10.353 92.2515 9.03577 92.19 7.67099Z" fill="white"/>
<path d="M89.4238 8.37597C89.3284 8.41186 89.234 8.44691 89.1411 8.48586C88.8511 10.3213 89.2694 12.1984 90.3114 13.737C90.3634 13.8128 90.4165 13.8877 90.4725 13.9621C90.5289 14.0411 90.5891 14.1188 90.6504 14.1956C91.6148 15.4019 92.9348 16.2736 94.4229 16.687C95.911 17.1003 97.4915 17.0341 98.9398 16.498C98.9877 16.3877 99.0328 16.2763 99.0791 16.164C97.662 16.7449 96.0949 16.8511 94.6123 16.4668C93.1298 16.0825 91.8117 15.2283 90.8552 14.0322C90.794 13.9554 90.7347 13.8769 90.6765 13.7976C90.6224 13.7235 90.5693 13.6485 90.5183 13.5719C89.4917 12.0482 89.0991 10.1844 89.4238 8.37597Z" fill="white"/>
<path d="M42.2904 91.3197C41.8586 91.3197 41.4224 91.3128 40.9942 91.2994L41.0039 90.9884C41.6188 91.0076 42.2462 91.0129 42.8639 91.0044L42.8682 91.3157C42.6759 91.3183 42.4833 91.3196 42.2904 91.3197ZM44.7411 91.2474L44.7228 90.9368C45.3386 90.9004 45.9622 90.8494 46.5764 90.7851L46.609 91.0945C45.99 91.1594 45.3617 91.211 44.7411 91.2474H44.7411ZM39.123 91.199C38.5021 91.1514 37.8746 91.0891 37.258 91.0134L37.296 90.7045C37.9079 90.7795 38.5305 90.8415 39.1467 90.8886L39.123 91.199ZM48.4677 90.8567L48.4211 90.549C49.0329 90.4562 49.6494 90.3484 50.2529 90.2285L50.3136 90.5337C49.7053 90.6545 49.0842 90.7632 48.4677 90.8567ZM35.4037 90.7428C34.7903 90.6388 34.1712 90.5194 33.5635 90.3874L33.6295 90.0831C34.2326 90.2142 34.8469 90.3327 35.4557 90.4358L35.4037 90.7428ZM52.143 90.1262L52.0682 89.824C52.6688 89.6755 53.2726 89.5113 53.8631 89.3362L53.9516 89.6348C53.3565 89.8112 52.7481 89.9766 52.143 90.1262ZM31.7417 89.9477C31.1401 89.7877 30.5346 89.6117 29.9421 89.4242L30.0359 89.1275C30.6239 89.3134 31.2247 89.4881 31.8217 89.6468L31.7417 89.9477ZM55.7356 89.0604L55.6335 88.7664C56.2162 88.5638 56.8023 88.3448 57.3758 88.1153L57.4913 88.4044C56.9136 88.6355 56.3229 88.8562 55.7356 89.0604ZM28.1639 88.8166C27.5795 88.6018 26.9915 88.37 26.4164 88.1277L26.5372 87.8407C27.108 88.0812 27.6914 88.3112 28.2713 88.5244L28.1639 88.8166ZM59.211 87.6698L59.0821 87.3864C59.6418 87.1322 60.2043 86.8607 60.7541 86.5796L60.8957 86.8569C60.3417 87.14 59.7749 87.4135 59.211 87.6698ZM62.5416 85.9672L62.3874 85.697C62.9241 85.3907 63.4599 85.0688 63.9796 84.74L64.1459 85.003C63.6222 85.3343 63.0825 85.6588 62.5416 85.9672ZM65.7048 83.9661L65.5266 83.711C66.032 83.3579 66.5363 82.9881 67.0256 82.6121L67.2153 82.8589C66.7224 83.2378 66.2141 83.6104 65.7048 83.9661H65.7048ZM18.2603 83.5277C17.7579 83.1628 17.256 82.7805 16.7685 82.3912L16.9627 82.148C17.4465 82.5343 17.9446 82.9136 18.4432 83.2757L18.2603 83.5277ZM68.674 81.684L68.4734 81.4459C68.9444 81.0485 69.4132 80.6343 69.8669 80.2148L70.0781 80.4434C69.6211 80.8661 69.1487 81.2835 68.674 81.684ZM15.3303 81.1882C14.8624 80.7784 14.3975 80.3522 13.9486 79.9213L14.1642 79.6966C14.6097 80.1243 15.071 80.5473 15.5353 80.9541L15.3303 81.1882ZM71.4247 79.1397L71.2031 78.9211C71.6373 78.4811 72.0669 78.0257 72.4795 77.5678L72.7109 77.776C72.295 78.2376 71.8623 78.6963 71.4247 79.1397H71.4247ZM12.6264 78.5931C12.1971 78.1417 11.7731 77.6751 11.3662 77.2063L11.6014 77.0023C12.0051 77.4676 12.4259 77.9306 12.852 78.3785L12.6264 78.5931ZM73.9337 76.355L73.6932 76.1574C74.0855 75.68 74.4718 75.1874 74.8416 74.6929L75.0908 74.8793C74.7183 75.3775 74.329 75.8741 73.9337 76.355V76.355ZM10.1707 75.764C9.78516 75.2769 9.40554 74.7739 9.04234 74.2691L9.29495 74.0873C9.65541 74.5882 10.0321 75.0873 10.4148 75.571L10.1707 75.764ZM76.1794 73.352L75.922 73.1772C76.2691 72.666 76.6091 72.14 76.9324 71.6133L77.1978 71.7762C76.8718 72.3069 76.5292 72.837 76.1794 73.352ZM7.98368 72.7248C7.6445 72.2049 7.31254 71.6698 6.99692 71.1342L7.26504 70.9761C7.57831 71.5076 7.90776 72.0387 8.24436 72.5546L7.98368 72.7248ZM78.1429 70.155L77.8705 70.0046C78.1694 69.4638 78.4597 68.9084 78.7337 68.3537L79.0128 68.4918C78.7368 69.0505 78.444 69.6101 78.1429 70.155V70.155ZM79.8053 66.7898L79.5202 66.6649C79.7682 66.0984 80.0064 65.5182 80.2282 64.9407L80.5188 65.0522C80.2954 65.6344 80.0552 66.2189 79.8053 66.7898V66.7898ZM4.4886 66.1182C4.24996 65.5454 4.02144 64.9595 3.8094 64.3764L4.102 64.27C4.31236 64.8487 4.53914 65.4301 4.77587 65.9984L4.4886 66.1182ZM81.1514 63.283L80.8559 63.1851C81.0502 62.5998 81.2335 62.0015 81.4007 61.4067L81.7004 61.4909C81.5318 62.0903 81.347 62.6932 81.1514 63.283ZM3.20977 62.6008C3.02457 62.0076 2.85053 61.4016 2.69253 60.7994L2.99364 60.7203C3.15042 61.318 3.32316 61.9194 3.50693 62.5081L3.20977 62.6008ZM82.166 59.6755L81.8627 59.605C82.0021 59.005 82.1295 58.3923 82.2415 57.7842L82.5476 57.8404C82.4349 58.4534 82.3064 59.0707 82.166 59.6755ZM2.25904 58.976C2.12924 58.368 2.01175 57.7486 1.90991 57.1347L2.21695 57.0836C2.3181 57.693 2.43468 58.3077 2.5635 58.9109L2.25904 58.976ZM82.8443 55.9902L82.5358 55.9479C82.6195 55.3383 82.6902 54.7166 82.746 54.1001L83.0561 54.1281C82.9998 54.7494 82.9285 55.3758 82.8443 55.9902L82.8443 55.9902ZM1.64559 55.2794C1.57218 54.6632 1.51191 54.0357 1.46639 53.4142L1.77691 53.3913C1.82198 54.0083 1.88187 54.631 1.95475 55.2427L1.64559 55.2794ZM83.1828 52.2585L82.8719 52.2445C82.8995 51.6277 82.9137 51.0021 82.9137 50.3852H83.2249C83.2249 51.0068 83.2108 51.6372 83.1828 52.2585H83.1828ZM1.37207 51.5423C1.36143 51.1607 1.35604 50.7712 1.35596 50.3852C1.35596 50.1456 1.35801 49.9065 1.36212 49.6679L1.67341 49.6734C1.6693 49.9102 1.66725 50.1474 1.66725 50.3852C1.66732 50.7683 1.67272 51.1549 1.68321 51.5338L1.37207 51.5423ZM1.74728 47.815L1.43661 47.7955C1.47544 47.1735 1.52909 46.5453 1.5959 45.9283L1.90536 45.9618C1.83901 46.5742 1.78588 47.1976 1.74727 47.815L1.74728 47.815ZM82.7127 45.9159C82.6505 45.3022 82.565 45.003 82.4747 44.3919L82.7826 44.3465C82.8736 44.9621 82.9515 45.4321 83.0143 46.0504L82.7127 45.9159ZM2.14772 44.118L1.84008 44.0704C1.93545 43.4546 2.04626 42.8339 2.16945 42.2254L2.47452 42.2871C2.3523 42.891 2.24232 43.5069 2.14771 44.118H2.14772ZM82.1605 42.5591C82.0418 41.9519 81.9079 41.3406 81.7623 40.7423L82.0647 40.6688C82.2114 41.2716 82.3464 41.8876 82.466 42.4994L82.1605 42.5591ZM2.88504 40.4732L2.5831 40.3975C2.73426 39.7946 2.90169 39.1867 3.08074 38.5906L3.3788 38.6801C3.20119 39.2717 3.03506 39.875 2.88503 40.4732H2.88504ZM81.2807 38.9458C81.1072 38.3531 80.9175 37.7569 80.717 37.1735L81.0113 37.0723C81.2134 37.6602 81.4046 38.2611 81.5796 38.8583L81.2807 38.9458ZM3.9566 36.9069L3.66295 36.8037C3.86981 36.2152 4.09317 35.6239 4.32679 35.0463L4.61543 35.163C4.38356 35.7362 4.16187 36.323 3.9566 36.9069ZM80.0719 35.4291C79.8448 34.8562 79.6016 34.2813 79.349 33.7202L79.6329 33.5924C79.8875 34.1578 80.1326 34.7371 80.3613 35.3143L80.0719 35.4291ZM5.35376 33.452L5.0709 33.322C5.33089 32.7558 5.6076 32.188 5.89335 31.6345L6.16998 31.7772C5.88635 32.3266 5.61177 32.8901 5.35376 33.452ZM78.5485 32.0456C78.2699 31.4961 77.9747 30.9454 77.6711 30.4091L77.942 30.2557C78.248 30.7962 78.5453 31.3511 78.826 31.9049L78.5485 32.0456ZM7.06228 30.1422L6.79249 29.9868C7.10301 29.4476 7.43049 28.9079 7.76587 28.3828L8.02822 28.5503C7.69542 29.0714 7.37038 29.6071 7.06228 30.1422V30.1422ZM76.7196 28.8137C76.3907 28.2901 76.0463 27.7684 75.6959 27.2632L75.9516 27.0858C76.3047 27.5949 76.6518 28.1206 76.9832 28.6482L76.7196 28.8137ZM9.06589 27.0046L8.81146 26.8252C9.17032 26.3163 9.54552 25.809 9.92688 25.3174L10.1728 25.5082C9.79442 25.9961 9.42195 26.4995 9.06589 27.0046V27.0046ZM74.6022 25.7606C74.227 25.2693 73.8364 24.7809 73.4408 24.3089L73.6794 24.109C74.0779 24.5846 74.4716 25.0767 74.8496 25.5717L74.6022 25.7606ZM11.3466 24.0643L11.1096 23.8624C11.5124 23.3894 11.9321 22.9186 12.3572 22.4631L12.5847 22.6754C12.1629 23.1275 11.7464 23.5949 11.3466 24.0643ZM72.2144 22.9112C71.7963 22.4561 71.3625 22.005 70.9254 21.5706L71.1449 21.3497C71.5854 21.7875 72.0223 22.242 72.4437 22.7006L72.2144 22.9112ZM13.8843 21.3448L13.6667 21.1223C14.1118 20.6869 14.5724 20.2563 15.0356 19.8427L15.2429 20.075C14.7832 20.4854 14.3261 20.9127 13.8843 21.3448L13.8843 21.3448ZM69.5767 20.2896C69.1184 19.874 68.6453 19.464 68.1704 19.0712L68.3689 18.8314C68.8473 19.2272 69.3241 19.6402 69.7858 20.059L69.5767 20.2896ZM16.6577 18.8683L16.4611 18.6269C16.9426 18.2348 17.4401 17.8482 17.9401 17.4776L18.1255 17.7276C17.6293 18.0955 17.1355 18.4792 16.6577 18.8683L16.6577 18.8683ZM19.6432 16.6554L19.4695 16.3972C19.9848 16.0505 20.5152 15.711 21.0462 15.3879L21.208 15.6539C20.6811 15.9745 20.1546 16.3115 19.6433 16.6555L19.6432 16.6554ZM22.8165 14.7252L22.6671 14.4521C23.2122 14.1538 23.7712 13.8644 24.3284 13.5918L24.4652 13.8715C23.9122 14.142 23.3575 14.4292 22.8165 14.7253L22.8165 14.7252ZM60.3844 14.004C59.8305 13.7281 59.2631 13.4615 58.698 13.2117L58.8238 12.927C59.3934 13.1787 59.9652 13.4473 60.5233 13.7254L60.3844 14.004ZM26.1507 13.0944L26.027 12.8088C26.5967 12.5619 27.1794 12.3251 27.759 12.1049L27.8695 12.396C27.2943 12.6144 26.716 12.8494 26.1507 13.0944L26.1507 13.0944ZM56.9763 12.4976C56.4 12.2741 55.8101 12.0608 55.2229 11.8638L55.322 11.5687C55.9136 11.7672 56.508 11.9821 57.0888 12.2074L56.9763 12.4976ZM29.6229 11.7759L29.5259 11.4801C30.1175 11.2862 30.7211 11.1035 31.3198 10.9375L31.403 11.2374C30.8088 11.4022 30.2099 11.5834 29.6229 11.7759ZM53.4464 11.3131C52.8527 11.1438 52.2471 10.9862 51.6466 10.8446L51.718 10.5417C52.3233 10.6843 52.9334 10.8432 53.5318 11.0136L53.4464 11.3131ZM33.2061 10.7815L33.1368 10.478C33.7433 10.3395 34.3611 10.2132 34.9729 10.1029L35.0283 10.4092C34.421 10.5187 33.808 10.644 33.2061 10.7815ZM49.827 10.4598C49.2209 10.346 48.6035 10.2448 47.9918 10.1589L48.035 9.85065C48.6513 9.93721 49.2736 10.0392 49.8845 10.1538L49.827 10.4598ZM36.8657 10.121L36.8245 9.81249C37.4407 9.73026 38.0674 9.6611 38.6871 9.60714L38.7141 9.91722C38.0991 9.97087 37.4773 10.0394 36.8657 10.121ZM46.1446 9.94245C45.5315 9.88469 44.9074 9.84016 44.2895 9.81029L44.3047 9.4993C44.9271 9.52947 45.5559 9.57431 46.1738 9.63254L46.1446 9.94245ZM40.5703 9.79782L40.5572 9.48684C41.1293 9.46298 41.7124 9.45081 42.2904 9.45066L42.4313 9.45089L42.4304 9.76218L42.2904 9.76195C41.7168 9.76211 41.138 9.77419 40.5703 9.79782Z" fill="#E4E4E4"/>
<path d="M88.4069 2.33485V28.4524C88.4062 29.0714 88.16 29.6649 87.7223 30.1026C87.2845 30.5404 86.6911 30.7866 86.072 30.7873H48.1957C47.5767 30.7866 46.9832 30.5404 46.5455 30.1026C46.1078 29.6649 45.8615 29.0714 45.8608 28.4524V2.33485C45.8615 1.71581 46.1078 1.12233 46.5455 0.684604C46.9832 0.24688 47.5767 0.000659274 48.1957 -3.97539e-05L86.072 -4.95911e-05C86.6911 0.000649443 87.2845 0.246871 87.7223 0.684597C88.16 1.12232 88.4062 1.71581 88.4069 2.33485Z" fill="#E4E4E4"/>
<path d="M86.9173 2.28891V28.4984C86.917 28.6892 86.8411 28.8722 86.7062 29.0071C86.5713 29.142 86.3883 29.2179 86.1975 29.2182H48.0703C47.8795 29.2179 47.6966 29.142 47.5616 29.0071C47.4267 28.8722 47.3508 28.6892 47.3506 28.4984V2.28891C47.3508 2.09809 47.4267 1.91514 47.5616 1.78021C47.6966 1.64528 47.8795 1.56938 48.0703 1.56916H86.1975C86.3883 1.56937 86.5713 1.64528 86.7062 1.78021C86.8411 1.91514 86.917 2.09809 86.9173 2.28891Z" fill="white"/>
<path d="M82.7177 5.72837H51.5503V6.37168H82.7177V5.72837Z" fill="white"/>
<path d="M82.7177 7.76552H51.5503V8.40883H82.7177V7.76552Z" fill="white"/>
<path d="M82.7177 9.80267H51.5503V10.446H82.7177V9.80267Z" fill="white"/>
<path d="M82.7177 13.0349H51.5503V13.6782H82.7177V13.0349Z" fill="#E4E4E4"/>
<path d="M82.7177 15.072H51.5503V15.7153H82.7177V15.072Z" fill="#E4E4E4"/>
<path d="M82.7177 17.1092H51.5503V17.7525H82.7177V17.1092Z" fill="#E4E4E4"/>
<path d="M82.7177 20.3413H51.5503V20.9847H82.7177V20.3413Z" fill="#E4E4E4"/>
<path d="M82.7177 22.3784H51.5503V23.0218H82.7177V22.3784Z" fill="#E4E4E4"/>
<path d="M82.7177 24.4156H51.5503V25.059H82.7177V24.4156Z" fill="#E4E4E4"/>
<path d="M28.4524 95.3368H2.33489C1.71585 95.336 1.12237 95.0898 0.684647 94.6521C0.246922 94.2144 0.000699597 93.6209 0 93.0019V55.1255C0.000699028 54.5065 0.246922 53.913 0.684647 53.4753C1.12237 53.0376 1.71585 52.7914 2.33489 52.7907H28.4524C29.0715 52.7914 29.6649 53.0376 30.1027 53.4753C30.5404 53.913 30.7866 54.5065 30.7873 55.1255V93.0019C30.7866 93.6209 30.5404 94.2144 30.1027 94.6521C29.6649 95.0898 29.0715 95.336 28.4524 95.3368Z" fill="#E4E4E4"/>
<path d="M28.4983 93.847H2.28885C2.09802 93.8468 1.91508 93.7709 1.78014 93.6359C1.64521 93.501 1.56931 93.3181 1.56909 93.1272V55.0001C1.56931 54.8092 1.64521 54.6263 1.78014 54.4914C1.91508 54.3564 2.09802 54.2805 2.28885 54.2803H28.4983C28.6892 54.2805 28.8721 54.3564 29.007 54.4914C29.142 54.6263 29.2179 54.8092 29.2181 55.0001V93.1272C29.2179 93.3181 29.142 93.501 29.007 93.6359C28.8721 93.7709 28.6892 93.8468 28.4983 93.847Z" fill="white"/>
<path d="M24.0501 74.4491H6.7373V75.0924H24.0501V74.4491Z" fill="#E4E4E4"/>
<path d="M24.0501 76.4862H6.7373V77.1295H24.0501V76.4862Z" fill="#E4E4E4"/>
<path d="M24.0501 78.5234H6.7373V79.1667H24.0501V78.5234Z" fill="#E4E4E4"/>
<path d="M24.0501 82.987H6.7373V83.6303H24.0501V82.987Z" fill="#E4E4E4"/>
<path d="M24.0501 85.024H6.7373V85.6674H24.0501V85.024Z" fill="#E4E4E4"/>
<path d="M24.0501 87.0612H6.7373V87.7045H24.0501V87.0612Z" fill="#E4E4E4"/>
<path d="M18.3764 59.7163L11.5945 62.3392L14.1266 68.8863L20.9085 66.2634L18.3764 59.7163Z" fill="white"/>
<path d="M12.4824 68.6474L9.73926 61.5547L17.0792 58.7159L19.8223 65.8086L12.4824 68.6474ZM10.0181 61.678L12.6057 68.3686L19.5435 65.6854L16.9559 58.9948L10.0181 61.678Z" fill="#3F3D56"/>
<path d="M42.2903 58.3921C46.7124 58.3921 50.2972 54.8073 50.2972 50.3852C50.2972 45.9631 46.7124 42.3783 42.2903 42.3783C37.8682 42.3783 34.2834 45.9631 34.2834 50.3852C34.2834 54.8073 37.8682 58.3921 42.2903 58.3921Z" fill="white"/>
<path d="M38.0399 49.6722C37.8514 49.6732 37.671 49.7487 37.5381 49.8824C37.4052 50.016 37.3306 50.1968 37.3306 50.3852C37.3306 50.5737 37.4052 50.7545 37.5381 50.8881C37.671 51.0217 37.8514 51.0973 38.0399 51.0982H40.7088C40.9391 51.0985 41.1599 51.1901 41.3228 51.3529C41.4856 51.5158 41.5772 51.7365 41.5775 51.9668V54.6358C41.5778 54.8247 41.6531 55.0057 41.7867 55.1392C41.9204 55.2726 42.1016 55.3476 42.2904 55.3476C42.4793 55.3476 42.6605 55.2726 42.7942 55.1392C42.9278 55.0057 43.0031 54.8247 43.0034 54.6358V51.9668C43.0037 51.7365 43.0953 51.5157 43.2581 51.3529C43.421 51.1901 43.6418 51.0985 43.872 51.0982H46.541C46.7295 51.0972 46.9099 51.0217 47.0428 50.8881C47.1757 50.7545 47.2503 50.5737 47.2503 50.3852C47.2503 50.1967 47.1757 50.016 47.0428 49.8823C46.9099 49.7487 46.7295 49.6732 46.541 49.6722H43.872C43.6418 49.6719 43.421 49.5804 43.2581 49.4175C43.0953 49.2547 43.0037 49.0339 43.0034 48.8036V46.1346C43.0031 45.9458 42.9278 45.7647 42.7942 45.6313C42.6605 45.4978 42.4793 45.4229 42.2904 45.4229C42.1016 45.4229 41.9204 45.4978 41.7867 45.6313C41.6531 45.7647 41.5778 45.9458 41.5775 46.1346V48.8036C41.5772 49.0339 41.4856 49.2547 41.3228 49.4175C41.1599 49.5804 40.9391 49.6719 40.7088 49.6722L38.0399 49.6722Z" fill="white"/>
<path d="M136.488 137.109L133.697 137.108L132.369 126.343L136.488 126.343L136.488 137.109Z" fill="#FFB6B6"/>
<path d="M137.2 139.814L128.2 139.814V139.7C128.2 138.771 128.569 137.88 129.226 137.223C129.883 136.566 130.774 136.197 131.703 136.197H131.703L137.2 136.197L137.2 139.814Z" fill="#2F2E41"/>
<path d="M119.925 137.109L117.134 137.108L115.806 126.343L119.925 126.343L119.925 137.109Z" fill="#FFB6B6"/>
<path d="M120.636 139.814L111.637 139.814V139.7C111.637 138.771 112.006 137.88 112.663 137.223C113.32 136.566 114.211 136.197 115.14 136.197H115.14L120.637 136.197L120.636 139.814Z" fill="#2F2E41"/>
<path d="M118.645 97.9671C118.969 97.781 119.248 97.5261 119.463 97.2204C119.678 96.9147 119.824 96.5656 119.889 96.1977C119.954 95.8297 119.938 95.4519 119.842 95.0909C119.746 94.7298 119.571 94.3943 119.331 94.1079L122.205 71.0034L116.652 71.2603L115.573 93.8905C115.119 94.3257 114.84 94.9125 114.789 95.5396C114.738 96.1667 114.92 96.7907 115.298 97.2932C115.677 97.7957 116.227 98.1418 116.844 98.266C117.46 98.3902 118.101 98.2838 118.645 97.9671Z" fill="#FFB6B6"/>
<path d="M122.083 75.0172L116.355 74.1817C116.192 74.1579 116.036 74.0993 115.898 74.0098C115.759 73.9204 115.642 73.8021 115.553 73.6632C115.465 73.5243 115.407 73.3679 115.385 73.2047C115.362 73.0416 115.375 72.8755 115.422 72.7177L117.083 67.1905C117.21 66.3573 117.661 65.6081 118.339 65.1073C119.017 64.6065 119.866 64.395 120.699 64.519C121.533 64.6431 122.283 65.0927 122.786 65.7692C123.288 66.4457 123.502 67.2939 123.38 68.1278L123.395 73.8805C123.395 74.0452 123.36 74.2081 123.292 74.358C123.223 74.5079 123.124 74.6413 122.999 74.7492C122.875 74.857 122.728 74.9368 122.57 74.9831C122.412 75.0293 122.246 75.041 122.083 75.0172Z" fill="white"/>
<path d="M118.744 90.5488L116.923 92.2333L117.059 101.076C117.059 101.076 115.52 113.99 115.379 114.411C115.239 114.833 114.673 130.273 114.673 130.273C114.673 130.273 117.621 131.677 120.288 130.835C120.288 130.835 122.955 118.201 122.955 114.552L126.043 101.778L129.557 116.517C129.557 116.517 131.096 126.202 131.658 129.431C132.219 132.659 132.219 133.08 132.219 133.08C132.219 133.08 136.711 134.344 137.834 133.08C137.834 133.08 137.272 116.517 136.851 114.833L135.869 94.7599L118.744 90.5488Z" fill="#2F2E41"/>
<path d="M126.955 59.3168C129.514 59.3168 131.588 57.2429 131.588 54.6846C131.588 52.1264 129.514 50.0525 126.955 50.0525C124.397 50.0525 122.323 52.1264 122.323 54.6846C122.323 57.2429 124.397 59.3168 126.955 59.3168Z" fill="#FFB9B9"/>
<path d="M132.175 61.9031L139.097 64.8614L136.149 81.1441C136.149 81.1441 136.294 89.5662 136.711 96.1635C137.056 101.634 115.936 96.1635 116.638 91.5314C117.34 86.8992 120.147 81.2845 120.147 81.2845C120.147 81.2845 120.849 75.1083 119.305 72.3009C117.761 69.4935 118.744 66.265 118.744 66.265L124.922 62.1712C124.922 62.1712 124.924 62.1944 132.175 61.9031Z" fill="white"/>
<path d="M125.817 51.6536C126.505 51.5461 127.198 51.4774 127.893 51.4479C128.396 51.393 128.906 51.4612 129.377 51.6466C130.063 51.9735 130.447 52.7123 130.699 53.4296C130.951 54.1468 131.13 54.9133 131.597 55.5131C132.374 54.702 132.529 53.4962 132.645 52.3789C132.726 51.5931 132.798 50.7552 132.435 50.0536C132.187 49.633 131.858 49.2658 131.468 48.9735C129.682 47.4875 127.415 46.3182 125.116 46.652L125.062 47.0069C124.67 46.9951 124.277 47.0198 123.889 47.0806L123.971 47.9611L122.75 48.0386L122.704 48.9563L121.469 48.9991C121.492 49.3517 121.646 49.6831 121.899 49.9293C121.709 50.0666 121.494 50.164 121.265 50.2158C121.471 51.013 121.671 51.812 121.884 52.6073C122.04 53.1932 122.012 53.7109 122.641 53.4249C123.119 53.2072 123.443 52.5149 123.927 52.2289C124.515 51.9203 125.157 51.7251 125.817 51.6536Z" fill="#2F2E41"/>
<path d="M142.503 97.2895C142.784 97.0433 143.008 96.7384 143.159 96.3964C143.309 96.0544 143.383 95.6835 143.375 95.3099C143.366 94.9363 143.276 94.569 143.111 94.234C142.945 93.8989 142.708 93.6043 142.417 93.3707L140.687 70.1526L135.293 71.4973L138.689 93.8972C138.329 94.4133 138.171 95.0435 138.245 95.6683C138.319 96.2932 138.619 96.8693 139.089 97.2874C139.56 97.7056 140.167 97.9367 140.796 97.9371C141.425 97.9375 142.033 97.7071 142.503 97.2895V97.2895Z" fill="#FFB6B6"/>
<path d="M141.357 74.1118L135.577 74.42C135.412 74.4288 135.248 74.402 135.095 74.3415C134.942 74.281 134.803 74.1882 134.689 74.0694C134.575 73.9506 134.488 73.8086 134.434 73.6531C134.379 73.4975 134.359 73.3322 134.375 73.1682L134.915 67.4222C134.875 66.5804 135.171 65.7571 135.737 65.1328C136.303 64.5084 137.093 64.134 137.935 64.0916C138.776 64.0492 139.601 64.3423 140.226 64.9066C140.852 65.4709 141.229 66.2604 141.274 67.1019L142.42 72.7393C142.452 72.9007 142.45 73.0673 142.413 73.2277C142.375 73.3881 142.304 73.5385 142.203 73.6688C142.102 73.799 141.974 73.906 141.829 73.9825C141.683 74.0589 141.522 74.1031 141.357 74.1118Z" fill="white"/>
<path d="M168.785 140.035H86.9097C86.8527 140.035 86.7981 140.012 86.7578 139.972C86.7175 139.932 86.6948 139.877 86.6948 139.82C86.6948 139.763 86.7175 139.709 86.7578 139.668C86.7981 139.628 86.8527 139.605 86.9097 139.605H168.785C168.842 139.605 168.897 139.628 168.937 139.668C168.977 139.709 169 139.763 169 139.82C169 139.877 168.977 139.932 168.937 139.972C168.897 140.012 168.842 140.035 168.785 140.035Z" fill="#CACACA"/>
</g>
<defs>
<clipPath id="clip0_101_816">
<rect width="169" height="140.12" fill="white"/>
</clipPath>
</defs>
</svg>
