<svg width="199" height="192" viewBox="0 0 199 192" fill="none" xmlns="http://www.w3.org/2000/svg">
<g clip-path="url(#clip0_89_105)">
<path d="M45.0963 24.7441C51.9293 24.7441 57.4684 19.205 57.4684 12.372C57.4684 5.53913 51.9293 -4.57764e-05 45.0963 -4.57764e-05C38.2634 -4.57764e-05 32.7242 5.53913 32.7242 12.372C32.7242 19.205 38.2634 24.7441 45.0963 24.7441Z" fill="#FF6584"/>
<path d="M59.0184 91.2592C54.1836 91.2592 49.5078 89.5325 45.8333 86.3903C44.6075 85.341 43.3015 83.5169 41.9515 80.9689C41.09 79.3277 40.6075 77.5142 40.5395 75.6619C40.4714 73.8095 40.8196 71.9655 41.5583 70.2655C40.8462 70.9899 40.0586 71.6359 39.2089 72.1925L38.7794 72.4783L38.7546 71.9633C38.7383 71.6283 38.7301 71.2944 38.7301 70.971C38.7301 69.0649 40.1717 67.1308 39.5069 65.3689C36.7046 57.9432 27.8163 50.5635 40.6981 39.0711C41.8897 38.008 40.2979 35.8824 40.2979 34.274C40.2979 18.5106 57.4254 -5.1358 68.8912 5.68619C75.5839 12.0031 89.5277 16.4905 96.038 25.277L96.1242 25.5373L95.8702 25.6401C94.5694 26.1868 93.1993 26.5512 91.7988 26.723C93.2919 27.0275 94.8156 27.1551 96.3385 27.1033L96.5747 27.095L96.6322 27.3246C97.1987 29.5976 97.485 31.9314 97.4847 34.274L97.4836 34.5272C97.4783 36.3065 97.8481 38.0669 98.5688 39.6937C99.2896 41.3205 100.345 42.7772 101.667 43.9687C103.754 45.8718 105.422 48.1889 106.564 50.7724C107.706 53.3558 108.298 56.1488 108.301 58.9735C108.301 62.3153 106.029 66.7019 104.124 69.7935C103.641 70.581 102.986 71.2489 102.208 71.7471C101.43 72.2454 100.55 72.561 99.6324 72.6704C98.7636 72.7799 97.8813 72.6972 97.048 72.428C96.2147 72.1588 95.4508 71.7097 94.8102 71.1126C95.7121 72.9259 96.8874 74.5898 98.2949 76.046L98.5548 76.3139L98.232 76.502C95.1301 78.3108 91.6033 79.2632 88.0125 79.2619L87.8022 79.2613C82.3506 79.2613 77.1759 81.3733 73.6051 85.0559C71.7092 87.009 69.4423 88.5637 66.9375 89.629C64.4327 90.6942 61.7403 91.2484 59.0184 91.2592Z" fill="#E6E6E6"/>
<path d="M51.864 123.04C51.7763 123.04 51.6915 123.008 51.6252 122.95C51.5589 122.893 51.5156 122.813 51.5033 122.726C51.4878 122.617 49.9694 111.667 51.3331 97.1134C52.5924 83.6728 56.6366 64.3137 68.7515 48.4143C68.7805 48.3762 68.8168 48.3441 68.8582 48.32C68.8996 48.2959 68.9454 48.2802 68.9929 48.2738C69.0404 48.2674 69.0886 48.2704 69.135 48.2827C69.1813 48.2949 69.2247 48.3162 69.2629 48.3452C69.301 48.3742 69.333 48.4105 69.3571 48.4519C69.3812 48.4933 69.3969 48.5391 69.4033 48.5866C69.4097 48.6341 69.4067 48.6823 69.3945 48.7287C69.3822 48.775 69.361 48.8185 69.3319 48.8566C57.3217 64.6187 53.3101 83.8358 52.0596 97.1815C50.7039 111.65 52.2104 122.515 52.2257 122.624C52.2331 122.675 52.2292 122.728 52.2143 122.778C52.1995 122.828 52.1741 122.875 52.1398 122.914C52.1055 122.954 52.0632 122.985 52.0156 123.007C51.968 123.029 51.9163 123.04 51.864 123.04H51.864Z" fill="#CCCCCC"/>
<path d="M62.9259 70.4388C62.8489 70.4389 62.7738 70.4145 62.7114 70.3693C62.649 70.324 62.6026 70.2601 62.5787 70.1869C62.5549 70.1136 62.5548 70.0346 62.5786 69.9613C62.6024 69.888 62.6488 69.8241 62.7111 69.7788C66.1632 67.4422 69.8923 65.5438 73.8128 64.1274C79.9378 61.8851 89.2517 59.8522 98.8403 62.9039C98.886 62.9184 98.9283 62.9418 98.9649 62.9727C99.0015 63.0036 99.0317 63.0414 99.0537 63.0839C99.0757 63.1265 99.0891 63.173 99.0932 63.2207C99.0972 63.2684 99.0918 63.3165 99.0773 63.3622C99.0628 63.4078 99.0394 63.4502 99.0085 63.4868C98.9776 63.5234 98.9398 63.5536 98.8973 63.5756C98.8547 63.5976 98.8082 63.611 98.7605 63.615C98.7127 63.6191 98.6647 63.6137 98.619 63.5992C89.2269 60.6102 80.0818 62.6094 74.0637 64.8128C70.2062 66.2049 66.5369 68.0713 63.1401 70.3691C63.0779 70.4144 63.0029 70.4388 62.9259 70.4388Z" fill="#CCCCCC"/>
<path d="M45.9766 27.3459C45.9709 27.269 45.9898 27.1923 46.0305 27.1269C46.0711 27.0614 46.1315 27.0105 46.2028 26.9814C46.2742 26.9523 46.353 26.9466 46.4278 26.9651C46.5026 26.9835 46.5697 27.0252 46.6194 27.0841C49.1985 30.3589 51.3605 33.9417 53.0556 37.75C55.7332 43.6976 58.4316 52.8409 56.0783 62.6244C56.0671 62.671 56.0469 62.7149 56.0187 62.7537C55.9906 62.7925 55.955 62.8254 55.9141 62.8504C55.8733 62.8754 55.8279 62.8922 55.7805 62.8997C55.7332 62.9072 55.6848 62.9052 55.6382 62.894C55.5916 62.8828 55.5477 62.8625 55.5089 62.8343C55.4702 62.8061 55.4373 62.7706 55.4123 62.7297C55.3873 62.6888 55.3706 62.6434 55.3631 62.596C55.3557 62.5487 55.3577 62.5003 55.3689 62.4537C57.6738 52.8708 55.0211 43.8934 52.3901 38.0496C50.7238 34.3024 48.598 30.777 46.0615 27.5545C46.0118 27.4957 45.9821 27.4227 45.9766 27.3459Z" fill="#CCCCCC"/>
<path d="M134.992 145.21C109.896 145.21 90.6339 143.889 77.2642 138.592C44.6999 125.693 33.66 120.336 33.5522 120.283L33.772 119.833C33.8795 119.886 44.9084 125.237 77.4485 138.127C96.7495 145.773 128.506 145.091 172.46 144.147C180.709 143.97 189.238 143.787 198.321 143.641L198.329 144.141C189.247 144.287 180.719 144.47 172.471 144.648C158.798 144.941 146.302 145.21 134.992 145.21Z" fill="#CACACA"/>
<path d="M29.0836 178.051L28.7297 177.697C40.8885 165.538 45.574 160.89 46.5667 159.906L10.7396 134.027L11.0327 133.621L47.339 159.846L47.1287 160.054C47.0885 160.094 42.9382 164.196 29.0836 178.051Z" fill="#CACACA"/>
<path d="M47.1236 191.137L46.7821 190.771C47.9037 189.724 74.2856 165.158 79.4264 165.158H79.4427L197.601 166.361L197.596 166.861L79.4375 165.658H79.423C74.483 165.658 47.3969 190.882 47.1236 191.137Z" fill="#CACACA"/>
<path d="M195.096 152.846H164.748V153.346H195.096V152.846Z" fill="#CACACA"/>
<path d="M138.281 152.846H107.934V153.346H138.281V152.846Z" fill="#CACACA"/>
<path d="M106.495 112.51H88.975V108.084H95.4824C95.8807 108.084 96.2626 107.926 96.5442 107.644C96.8259 107.363 96.9841 106.981 96.9841 106.582V101.788C96.9841 101.389 96.8259 101.007 96.5442 100.726C96.2626 100.444 95.8807 100.286 95.4824 100.286H88.975V98.7841C88.975 98.2531 88.764 97.7438 88.3885 97.3683C88.013 96.9928 87.5037 96.7818 86.9727 96.7818C86.4417 96.7818 85.9324 96.9928 85.5569 97.3683C85.1814 97.7438 84.9704 98.2531 84.9704 98.7841V100.286H60.9204C60.6095 100.286 60.3063 100.382 60.0525 100.562L56.6669 102.959C56.471 103.098 56.3112 103.282 56.2009 103.495C56.0906 103.708 56.0331 103.945 56.0331 104.185C56.0331 104.425 56.0906 104.662 56.2009 104.875C56.3112 105.088 56.471 105.272 56.6669 105.411L60.0525 107.808C60.3063 107.988 60.6095 108.084 60.9204 108.084H84.9704V112.51H67.4505C67.0522 112.51 66.6702 112.668 66.3886 112.95C66.107 113.232 65.9488 113.614 65.9488 114.012V118.807C65.9488 119.205 66.107 119.587 66.3886 119.869C66.6702 120.15 67.0522 120.309 67.4505 120.309H84.9704V136.827C84.9704 137.358 85.1814 137.868 85.5569 138.243C85.9324 138.619 86.4417 138.83 86.9727 138.83C87.5037 138.83 88.013 138.619 88.3885 138.243C88.764 137.868 88.975 137.358 88.975 136.827V120.309H106.495C106.893 120.309 107.275 120.15 107.557 119.869C107.838 119.587 107.997 119.205 107.997 118.807V114.012C107.997 113.815 107.958 113.619 107.882 113.437C107.807 113.255 107.696 113.09 107.557 112.95C107.417 112.811 107.252 112.7 107.07 112.625C106.887 112.549 106.692 112.51 106.495 112.51Z" fill="#3F3D56"/>
<path d="M76.9613 104.415H64.447C64.2147 104.415 63.9919 104.323 63.8276 104.159C63.6633 103.995 63.571 103.772 63.571 103.539C63.571 103.307 63.6633 103.084 63.8276 102.92C63.9919 102.756 64.2147 102.663 64.447 102.663H76.9613C77.1936 102.663 77.4164 102.756 77.5807 102.92C77.745 103.084 77.8373 103.307 77.8373 103.539C77.8373 103.772 77.745 103.995 77.5807 104.159C77.4164 104.323 77.1936 104.415 76.9613 104.415Z" fill="white"/>
<path d="M92.479 117.18H79.9647C79.7324 117.18 79.5096 117.088 79.3453 116.923C79.181 116.759 79.0887 116.536 79.0887 116.304C79.0887 116.072 79.181 115.849 79.3453 115.685C79.5096 115.52 79.7324 115.428 79.9647 115.428H92.479C92.7113 115.428 92.9341 115.52 93.0984 115.685C93.2627 115.849 93.355 116.072 93.355 116.304C93.355 116.536 93.2627 116.759 93.0984 116.923C92.9341 117.088 92.7113 117.18 92.479 117.18Z" fill="white"/>
<path d="M32.4107 137.539V133.113H38.9181C39.3164 133.113 39.6983 132.954 39.9799 132.673C40.2616 132.391 40.4198 132.009 40.4198 131.611V126.816C40.4198 126.418 40.2616 126.036 39.9799 125.754C39.6983 125.472 39.3164 125.314 38.9181 125.314H32.4107V123.881C32.4174 123.364 32.2284 122.864 31.8818 122.481C31.5352 122.098 31.0565 121.86 30.5417 121.815C30.2681 121.796 29.9937 121.835 29.7355 121.927C29.4773 122.019 29.2407 122.163 29.0405 122.35C28.8403 122.538 28.6807 122.764 28.5716 123.016C28.4624 123.267 28.4061 123.538 28.4061 123.813V125.314L1.4733 137.916C1.36316 137.967 1.26472 138.041 1.18405 138.131C1.10337 138.222 1.04219 138.329 1.00427 138.444C0.79213 139.09 0.346496 140.47 0.0433939 141.557C-0.00528478 141.734 -0.0118017 141.919 0.0243712 142.099C0.0605442 142.278 0.138396 142.447 0.251642 142.591C0.364889 142.734 0.510362 142.85 0.676331 142.927C0.842301 143.004 1.02412 143.042 1.20712 143.036C2.9428 142.982 4.08482 142.902 4.87744 142.879C5.03033 142.875 5.18086 142.841 5.3204 142.778L28.4061 133.113V145.337V161.787C28.3994 162.304 28.5884 162.804 28.935 163.187C29.2816 163.571 29.7603 163.809 30.2751 163.854C30.5487 163.872 30.8231 163.834 31.0813 163.742C31.3395 163.65 31.5761 163.505 31.7763 163.318C31.9765 163.131 32.1361 162.904 32.2452 162.653C32.3544 162.401 32.4107 162.13 32.4107 161.856V137.539H32.4107Z" fill="#3F3D56"/>
<path d="M21.9598 133.19L10.5405 138.309C10.3285 138.404 10.0874 138.411 9.8703 138.328C9.65319 138.246 9.47783 138.08 9.3828 137.868C9.28776 137.656 9.28083 137.415 9.36354 137.198C9.44625 136.981 9.61181 136.805 9.82381 136.71L21.2431 131.591C21.4551 131.496 21.6962 131.489 21.9133 131.572C22.1304 131.655 22.3058 131.82 22.4008 132.032C22.4959 132.244 22.5028 132.485 22.4201 132.703C22.3374 132.92 22.1718 133.095 21.9598 133.19Z" fill="white"/>
<path d="M174.996 92.411L169.777 92.9406C169.54 95.6219 170.008 98.3186 171.133 100.764L169.567 115.348L169.59 115.348C169.436 115.614 169.357 115.918 169.363 116.226C169.368 116.533 169.457 116.834 169.62 117.095C169.784 117.356 170.015 117.567 170.29 117.707C170.564 117.846 170.872 117.908 171.179 117.885C171.486 117.863 171.781 117.757 172.032 117.58C172.284 117.402 172.482 117.159 172.606 116.877C172.73 116.596 172.775 116.285 172.735 115.98C172.696 115.675 172.574 115.386 172.383 115.145L175.863 102.131L174.996 92.411Z" fill="#A0616A"/>
<path d="M158.944 156.43L156.727 156.048L156.51 149.355L160.418 147.877L158.944 156.43Z" fill="#A0616A"/>
<path d="M158.624 158.757L151.805 157.582L151.82 157.496C151.941 156.792 152.337 156.165 152.92 155.753C153.504 155.341 154.227 155.178 154.931 155.299L154.931 155.299L156.34 154.569L158.501 155.914L159.096 156.017L158.624 158.757Z" fill="#2F2E41"/>
<path d="M181.191 151.796L179.271 152.969L173.833 146.12L176.668 144.389L181.191 151.796Z" fill="#A0616A"/>
<path d="M182.482 153.758L176.577 157.365L176.531 157.29C176.159 156.68 176.044 155.948 176.212 155.254C176.38 154.559 176.816 153.96 177.426 153.588L177.426 153.588L178.005 152.111L180.517 151.7L181.033 151.385L182.482 153.758Z" fill="#2F2E41"/>
<path d="M159.703 115.725L158.372 120.781C158.372 120.781 158.009 122.876 158.197 123.064C158.518 123.518 158.68 124.066 158.658 124.622C158.573 125.134 157.713 124.925 158.143 125.689C158.574 126.452 157.243 138.065 157.243 138.065L156.051 152.345L160.306 152.846C160.917 152.488 161.007 152.081 160.646 151.632C160.646 151.632 161.519 150.625 161.038 150.234C160.556 149.842 161.426 149.678 161.473 148.679L164.219 138.873L165.128 136.68L164.891 135.537L165.581 134.224L165.913 130.78L166.814 139.831L175.223 149.487L179.363 147.417L179.606 146.888C179.706 146.67 179.723 146.424 179.654 146.194C179.585 145.965 179.434 145.769 179.231 145.642L177.826 144.336C177.946 143.798 176.036 142.448 176.036 142.448L172.836 136.426L174.823 119.558C174.823 119.558 177.826 115.553 173.847 111.93C172.217 110.445 159.703 115.725 159.703 115.725Z" fill="#2F2E41"/>
<path d="M172.507 109.082C173.213 108.034 174.906 109.539 174.342 107.657C173.777 105.775 172.349 105.426 173.627 103.624L175.471 94.6467C175.581 92.5039 174.854 90.4021 173.442 88.7863L170.788 85.7495L170.39 84.6723L165.873 84.4842L165.497 85.8015C164.147 87.4816 161.939 89.639 162.005 92.8122C162.132 98.9185 161.18 107.044 158.834 117.614C158.834 117.614 164.08 113.518 165.729 115.293C167.378 117.067 172.347 116.585 173.589 115.348C174.385 114.493 174.965 113.461 175.283 112.337C175.283 112.337 171.802 110.13 172.507 109.082Z" fill="white"/>
<path d="M175.359 116.204L165.062 113.301L158.304 116.554C161.33 110.924 163.171 101.55 162.589 93.5872C162.449 91.8952 162.782 90.1975 163.549 88.683C164.478 86.8949 165.931 85.6316 168.065 85.7693L170.818 85.519L172.57 86.5202C175.105 89.1759 176.102 93.1383 175.708 96.7888C175.272 100.818 174.73 105.712 174.621 106.149C174.557 106.406 174.76 106.857 174.974 107.335C175.337 108.14 175.787 109.143 175.161 109.769C174.972 109.937 174.819 110.142 174.713 110.372C174.608 110.602 174.551 110.852 174.547 111.105C174.563 111.33 174.625 111.549 174.73 111.749C174.835 111.949 174.98 112.125 175.156 112.266C175.956 112.957 175.399 115.99 175.375 116.118L175.359 116.204Z" fill="#2F2E41"/>
<path d="M170.106 96.2634L164.932 95.3995C163.997 97.9238 163.738 100.648 164.179 103.304L158.827 116.96L158.849 116.966C158.63 117.183 158.474 117.455 158.398 117.753C158.322 118.051 158.329 118.365 158.418 118.659C158.507 118.954 158.674 119.219 158.903 119.426C159.131 119.632 159.411 119.773 159.713 119.832C160.015 119.892 160.328 119.867 160.617 119.762C160.907 119.657 161.162 119.475 161.356 119.236C161.549 118.997 161.674 118.709 161.717 118.404C161.759 118.099 161.718 117.789 161.597 117.506L168.382 105.869L170.106 96.2634Z" fill="#A0616A"/>
<path d="M164.06 99.0344L170.067 97.783L171.048 93.4235C171.048 92.5255 170.69 91.6647 170.055 91.03C169.42 90.3954 168.559 90.0389 167.661 90.0389C166.763 90.0389 165.902 90.3954 165.267 91.03C164.631 91.6647 164.274 92.5255 164.273 93.4235C163.668 95.8495 163.774 96.5524 164.06 99.0344Z" fill="white"/>
<path d="M167.943 83.9196C170.542 83.9196 172.648 81.8131 172.648 79.2147C172.648 76.6163 170.542 74.5098 167.943 74.5098C165.345 74.5098 163.238 76.6163 163.238 79.2147C163.238 81.8131 165.345 83.9196 167.943 83.9196Z" fill="#A0616A"/>
<path d="M173.401 75.639C173.035 74.9838 171.578 75.822 171.127 75.2224C170.769 74.7001 170.314 74.2518 169.786 73.9024C169.348 73.6479 168.852 73.5112 168.346 73.5055C167.839 73.4999 167.34 73.6256 166.897 73.8702C166.573 74.1019 166.225 74.2994 165.86 74.4598C165.48 74.5812 164.983 74.4895 164.819 74.126C164.935 74.4436 165.051 74.7612 165.167 75.0788C164.859 75.2213 164.509 75.2431 164.186 75.14C163.863 75.0369 163.59 74.8164 163.421 74.522C163.401 74.8508 163.381 75.1796 163.36 75.5084C163.333 75.4184 163.274 75.3411 163.195 75.2906C163.116 75.24 163.021 75.2195 162.928 75.2328C162.811 75.2681 162.705 75.3331 162.621 75.4214C162.537 75.5097 162.477 75.6183 162.446 75.7367C162.149 76.6107 162.86 77.6308 163.772 77.7773C164.335 77.8679 164.902 77.6869 165.468 77.6102C166.034 77.5335 166.689 77.5976 167.046 78.0428C167.397 78.4801 167.329 79.1032 167.35 79.6636C167.37 80.224 167.615 80.8963 168.171 80.971C168.552 81.0223 168.916 80.7564 169.3 80.7792C169.849 80.8117 170.2 81.4418 170.141 81.9879C170.082 82.5339 169.739 83.0013 169.408 83.4394C169.955 83.4827 170.503 83.5261 171.05 83.5694L170.838 83.6282C172.178 83.5627 173.212 82.2625 173.372 80.9308C173.532 79.5991 174.055 76.8098 173.401 75.639Z" fill="#2F2E41"/>
</g>
<defs>
<clipPath id="clip0_89_105">
<rect width="198.329" height="191.137" fill="white"/>
</clipPath>
</defs>
</svg>
